<?xml version="1.0" encoding="UTF-8"?>
<svg width="30px" height="30px" viewBox="0 0 30 30" version="1.1" xmlns="http://www.w3.org/2000/svg" xmlns:xlink="http://www.w3.org/1999/xlink">
    <!-- Generator: Sketch 51.1 (57501) - http://www.bohemiancoding.com/sketch -->
    <title>icon/navi/account</title>
    <desc>Created with Sketch.</desc>
    <defs></defs>
    <g id="icon/navi/account" stroke="none" stroke-width="1" fill="none" fill-rule="evenodd" fill-opacity="0.252547554">
        <path d="M15,18.02 C16.2400062,18.02 17.5999926,18.1999982 19.08,18.56 C20.7600084,18.9800021 22.1199948,19.5399965 23.16,20.24 C24.4000062,21.0600041 25.02,21.9799949 25.02,23 L25.02,25.52 L4.98,25.52 L4.98,23 C4.98,21.9799949 5.5999938,21.0600041 6.84,20.24 C7.8800052,19.5399965 9.2399916,18.9800021 10.92,18.56 C12.4000074,18.1999982 13.7599938,18.02 15,18.02 Z M15,15.5 C14.0999955,15.5 13.2700038,15.2750023 12.51,14.825 C11.7499962,14.3749978 11.1450022,13.7700038 10.695,13.01 C10.2449977,12.2499962 10.02,11.4200045 10.02,10.52 C10.02,9.6199955 10.2449977,8.7800039 10.695,8 C11.1450022,7.2199961 11.7499962,6.60500225 12.51,6.155 C13.2700038,5.70499775 14.0999955,5.48 15,5.48 C15.9000045,5.48 16.7299962,5.70499775 17.49,6.155 C18.2500038,6.60500225 18.8549977,7.2199961 19.305,8 C19.7550023,8.7800039 19.98,9.6199955 19.98,10.52 C19.98,11.4200045 19.7550023,12.2499962 19.305,13.01 C18.8549977,13.7700038 18.2500038,14.3749978 17.49,14.825 C16.7299962,15.2750023 15.9000045,15.5 15,15.5 Z" id="person---material" fill="#4A4A4A"></path>
    </g>
</svg>