<?xml version="1.0" encoding="UTF-8"?>
<svg width="30px" height="30px" viewBox="0 0 30 30" version="1.1" xmlns="http://www.w3.org/2000/svg" xmlns:xlink="http://www.w3.org/1999/xlink">
    <!-- Generator: Sketch 51.1 (57501) - http://www.bohemiancoding.com/sketch -->
    <title>icon/navi/wallet_active</title>
    <desc>Created with Sketch.</desc>
    <defs></defs>
    <g id="icon/navi/wallet_active" stroke="none" stroke-width="1" fill="none" fill-rule="evenodd">
        <path d="M19.98,17.36 C20.5000026,17.36 20.9449981,17.1800018 21.315,16.82 C21.6850018,16.4599982 21.87,16.0200026 21.87,15.5 C21.87,14.9799974 21.6850018,14.5350019 21.315,14.165 C20.9449981,13.7949981 20.5000026,13.61 19.98,13.61 C19.4599974,13.61 19.0200018,13.7949981 18.66,14.165 C18.2999982,14.5350019 18.12,14.9799974 18.12,15.5 C18.12,16.0200026 18.2999982,16.4599982 18.66,16.82 C19.0200018,17.1800018 19.4599974,17.36 19.98,17.36 Z M15,20.48 L15,10.52 L27.48,10.52 L27.48,20.48 L15,20.48 Z M26.25,23 L26.25,24.23 C26.25,24.9100034 26.0000025,25.4999975 25.5,26 C24.9999975,26.5000025 24.4100034,26.75 23.73,26.75 L6.27,26.75 C5.5699965,26.75 4.97500245,26.5000025 4.485,26 C3.99499755,25.4999975 3.75,24.9100034 3.75,24.23 L3.75,6.77 C3.75,6.0899966 3.99499755,5.5000025 4.485,5 C4.97500245,4.4999975 5.5699965,4.25 6.27,4.25 L23.73,4.25 C24.4100034,4.25 24.9999975,4.4999975 25.5,5 C26.0000025,5.5000025 26.25,6.0899966 26.25,6.77 L26.25,8 L15,8 C14.2999965,8 13.7050024,8.2499975 13.215,8.75 C12.7249975,9.2500025 12.48,9.8399966 12.48,10.52 L12.48,20.48 C12.48,21.1600034 12.7249975,21.7499975 13.215,22.25 C13.7050024,22.7500025 14.2999965,23 15,23 L26.25,23 Z" id="account_balance_wallet---material" fill="#3F5498"></path>
    </g>
</svg>