<?xml version="1.0" encoding="UTF-8"?>
<svg width="200px" height="200px" viewBox="0 0 200 200" version="1.1" xmlns="http://www.w3.org/2000/svg" xmlns:xlink="http://www.w3.org/1999/xlink">
    <!-- Generator: Sketch 51.1 (57501) - http://www.bohemiancoding.com/sketch -->
    <title>crypto/btc/lightbg</title>
    <desc>Created with Sketch.</desc>
    <defs></defs>
    <g id="crypto/btc/lightbg" stroke="none" stroke-width="1" fill="none" fill-rule="evenodd">
        <g id="btc">
            <g id="Group">
                <path d="M199.742857,99.871583 C199.742857,155.029112 155.028571,199.742625 99.8710425,199.742625 C44.7135135,199.742625 0,155.029112 0,99.871583 C0,44.7140541 44.7135135,0.000540540541 99.8710425,0.000540540541 C155.028571,0.000540540541 199.742857,44.7140541 199.742857,99.871583" id="btc-circle" fill="#F7931A"></path>
                <path d="M94.3359073,89.9935907 C100.972201,92.1001544 107.39305,93.702471 114.143629,92.829112 C119.299614,92.1619305 122.442471,88.8630888 122.933591,84.1094208 C123.362162,79.9549807 121.583784,76.8978378 118.286486,74.6221622 C112.778378,70.82139 106.417761,69.5812355 99.7714286,68.244556 C97.9227799,75.6437838 96.1621622,82.6862548 94.3359073,89.9935907 M91.6100386,100.830656 C89.834749,107.799768 88.16139,114.358069 86.4972973,120.918687 C86.3405405,121.538764 86.2942085,122.190502 86.0996139,122.797452 C85.4702703,124.768108 86.7343629,125.347259 88.2285714,125.636062 C93.380695,126.632201 98.5127413,127.840695 103.714286,128.42834 C106.569112,128.75112 109.671815,128.431429 112.443243,127.636834 C119.836293,125.514826 122.227799,116.585869 116.925869,110.992046 C115.118919,109.087027 112.777606,107.517915 110.40695,106.349575 C104.632432,103.501699 98.3907336,102.065405 91.6100386,100.830656 M116.090347,40.6113514 C119.444015,41.452278 122.637838,42.2530502 126.248649,43.1580695 C124.836293,49.0823938 123.477992,54.7789189 122.04556,60.7881853 C123.464865,61.3773745 124.746718,61.8885714 126.011583,62.4399228 C131.220849,64.7086486 136.11583,67.3341313 140.057915,71.6654054 C147.071815,79.3719691 144.418533,96.413668 132.836293,100.569653 C132.133591,100.82139 131.457915,101.148803 130.259459,101.658456 C131.525869,102.569653 132.392278,103.242239 133.307336,103.843012 C139.474903,107.890116 142.407722,113.541853 141.477992,120.915598 C140.14749,131.460772 134.459459,142.075444 121.029344,143.553436 C117.610039,143.93027 114.107336,143.774286 110.657915,143.595135 C107.737452,143.443784 104.837838,142.904788 101.681853,142.506332 C100.179923,148.37583 98.7220077,154.076216 97.1528958,160.20749 C93.769112,159.388185 90.4772201,158.592046 86.827027,157.708649 C88.2710425,151.762703 89.6509653,146.078533 91.1196911,140.026023 C88.0841699,139.213668 85.2949807,138.46695 82.1621622,137.629112 C80.6131274,143.61444 79.1428571,149.300154 77.5876448,155.310965 C74.172973,154.497066 70.9737452,153.734903 67.3366795,152.867722 C68.7907336,146.874672 70.1984556,141.067722 71.7119691,134.829884 C64.5899614,132.988185 57.6602317,131.195135 50.0687259,129.231429 C51.8169884,125.175058 53.4532819,121.379691 55.1389961,117.46695 C57.807722,118.069266 60.1513514,118.683166 62.5289575,119.115598 C65.8779923,119.724093 67.4725869,118.836834 68.2895753,115.615212 C72.2401544,100.032973 76.1444015,84.4383784 79.9629344,68.8229344 C80.9057915,64.9657915 79.5235521,62.7101931 75.769112,61.3117375 C74.4494208,60.8206178 73.0501931,60.5441699 71.6833977,60.1804633 C70.4525097,59.8530502 69.2185328,59.5395367 67.4625483,59.0854826 C68.3791506,55.4183012 69.2555985,51.9117375 70.203861,48.1125097 C77.5907336,49.9341313 84.5413127,51.6476448 91.9969112,53.4854826 C93.5088803,47.5835521 94.9606178,41.9163707 96.5444015,35.7333591 C100.015444,36.5959073 103.290347,37.4082625 106.816216,38.2839382 C105.383784,44.1843243 104.054826,49.656139 102.612355,55.5959073 C105.482625,56.3186873 108.153668,56.9912741 111.451737,57.82139 C113.403861,52.232973 114.281853,46.4298842 116.090347,40.6113514" id="btc" fill="#FFFFFF"></path>
            </g>
        </g>
    </g>
</svg>