<?xml version="1.0" encoding="UTF-8"?>
<svg width="200px" height="200px" viewBox="0 0 200 200" version="1.1" xmlns="http://www.w3.org/2000/svg" xmlns:xlink="http://www.w3.org/1999/xlink">
    <!-- Generator: Sketch 51.1 (57501) - http://www.bohemiancoding.com/sketch -->
    <title>crypto/ltc</title>
    <desc>Created with Sketch.</desc>
    <defs></defs>
    <g id="crypto/ltc" stroke="none" stroke-width="1" fill="none" fill-rule="evenodd">
        <g id="Litecoin" transform="translate(2.000000, 0.000000)">
            <g id="Group">
                <path d="M99.0769231,197.230769 C44.9230769,196.923077 1.53846154,153.538462 1.84615385,99.6923077 C1.84615385,45.5384615 45.8461538,2.15384615 99.6923077,2.46153846 C153.846154,2.76923077 197.230769,46.4615385 196.923077,100.307692 C196.307692,154.153846 152.615385,197.538462 99.0769231,197.230769 Z M187.384615,100 C187.384615,51.0769231 148,11.6923077 99.0769231,11.6923077 C50.4615385,11.6923077 11.0769231,51.0769231 11.0769231,99.6923077 C11.0769231,148.615385 50.4615385,188 99.3846154,188 C148,188 187.384615,148.615385 187.384615,100 Z" id="Shape" fill="#C0C0C0" fill-rule="nonzero"></path>
                <path d="M174.153846,100 C173.538462,141.538462 140,175.076923 98.7692308,174.769231 C56.9230769,174.153846 23.6923077,140.307692 24.3076923,99.0769231 C24.9230769,57.5384615 58.4615385,24.6153846 99.3846154,24.9230769 C140.923077,25.2307692 174.153846,58.7692308 174.153846,100 Z M94.4615385,126.769231 C94.4615385,126.461538 94.4615385,126.153846 94.4615385,125.846154 C96.6153846,117.538462 98.4615385,109.538462 100.615385,101.230769 C100.923077,100.615385 101.538462,99.6923077 102.461538,99.3846154 C104.615385,98.4615385 106.769231,97.5384615 108.923077,96.9230769 C113.846154,95.6923077 116.615385,92.9230769 117.230769,88 C117.538462,85.8461538 118.461538,83.6923077 119.076923,81.2307692 C113.846154,83.3846154 109.230769,85.2307692 104.307692,87.0769231 C107.692308,73.8461538 110.769231,61.5384615 114.153846,48.6153846 C113.230769,48.6153846 112.615385,48.6153846 112,48.6153846 C103.384615,48.6153846 94.7692308,48.6153846 86.1538462,48.6153846 C84.3076923,48.6153846 83.6923077,49.2307692 83.0769231,51.0769231 C78.7692308,67.0769231 74.4615385,83.0769231 70.1538462,99.0769231 C69.8461538,100 68.9230769,100.923077 68.3076923,101.230769 C65.5384615,102.461538 62.4615385,103.384615 59.6923077,104.615385 C59.0769231,104.923077 58.1538462,105.230769 58.1538462,105.538462 C56.9230769,109.538462 55.6923077,113.846154 54.1538462,118.461538 C58.4615385,116.615385 62.1538462,115.076923 66.4615385,113.538462 C63.6923077,124.307692 60.9230769,134.769231 58.1538462,145.230769 C64.3076923,145.230769 70.1538462,145.230769 76,145.230769 C96.6153846,145.230769 116.923077,145.230769 137.538462,145.230769 C139.076923,145.230769 139.692308,144.923077 140,143.384615 C140.615385,140.307692 141.538462,137.230769 142.461538,134.461538 C143.076923,132.307692 143.384615,130.153846 144,127.692308 C127.384615,127.384615 111.076923,127.076923 94.4615385,126.769231 Z" id="Shape" fill="#C0C0C0" fill-rule="nonzero"></path>
                <path d="M94.4615385,126.769231 C111.076923,127.076923 127.384615,127.384615 144,128 C143.384615,130.461538 142.769231,132.615385 142.461538,134.769231 C141.538462,137.846154 140.615385,140.615385 140,143.692308 C139.692308,145.230769 139.076923,145.538462 137.538462,145.538462 C116.923077,145.538462 96.6153846,145.538462 76,145.538462 C70.1538462,145.538462 64.3076923,145.538462 58.1538462,145.538462 C60.9230769,134.769231 63.6923077,124.615385 66.4615385,113.846154 C62.1538462,115.384615 58.4615385,116.923077 54.1538462,118.769231 C55.3846154,114.153846 56.6153846,110.153846 58.1538462,105.846154 C58.1538462,105.230769 59.0769231,104.923077 59.6923077,104.923077 C62.4615385,103.692308 65.5384615,102.769231 68.3076923,101.538462 C69.2307692,101.230769 70.1538462,100.307692 70.1538462,99.3846154 C74.4615385,83.3846154 78.7692308,67.3846154 83.0769231,51.3846154 C83.3846154,49.5384615 84,48.9230769 86.1538462,48.9230769 C94.7692308,48.9230769 103.384615,48.9230769 112,48.9230769 C112.615385,48.9230769 113.230769,48.9230769 114.153846,48.9230769 C110.769231,61.5384615 107.692308,74.1538462 104.307692,87.3846154 C109.230769,85.2307692 113.846154,83.3846154 119.076923,81.5384615 C118.461538,84 117.538462,86.1538462 117.230769,88.3076923 C116.615385,93.2307692 113.846154,96 108.923077,97.2307692 C106.769231,97.8461538 104.615385,98.7692308 102.461538,99.6923077 C101.846154,100 100.923077,100.923077 100.615385,101.538462 C98.4615385,109.846154 96.3076923,117.846154 94.4615385,126.153846 C94.4615385,126.153846 94.4615385,126.461538 94.4615385,126.769231 Z" id="Shape" fill="#FFFFFF" fill-rule="nonzero"></path>
            </g>
        </g>
    </g>
</svg>